HIERARCHY
ROOT root
{
	OFFSET	0	13.1	24.9
	CHANNELS 6  Xposition Yposition Zposition Xrotation Yrotation Zrotation
	JOINT spine_1
	{
		OFFSET	0	9.99999	0
		CHANNELS 3  Xrotation Yrotation Zrotation
		JOINT spine_2
		{
			OFFSET	0	112	-10
			CHANNELS 3  Xrotation Yrotation Zrotation
			JOINT spine_3
			{
				OFFSET	0	206.5	19.3
				CHANNELS 3  Xrotation Yrotation Zrotation
				JOINT spine_4
				{
					OFFSET	0	110.4	14.6
					CHANNELS 3  Xrotation Yrotation Zrotation
					JOINT neck_1
					{
						OFFSET	0	71.8	-50.3
						CHANNELS 3  Xrotation Yrotation Zrotation
						JOINT neck_2
						{
							OFFSET	0	86.2	-25.8
							CHANNELS 3  Xrotation Yrotation Zrotation
							JOINT head_ee
							{
								OFFSET	0	179.8	-8.7
								CHANNELS 3  Xrotation Yrotation Zrotation
								End Site
								{
									OFFSET	1	0	0
								}
							}
						}
					}
					JOINT left_clavicle
					{
						OFFSET	-43.2	22.4	-70.8
						CHANNELS 3  Xrotation Yrotation Zrotation
						JOINT left_shoulder
						{
							OFFSET	-93.9	-5.79999	48.7
							CHANNELS 3  Xrotation Yrotation Zrotation
							JOINT left_elbow
							{
								OFFSET	-291.4	-30.8	15.2
								CHANNELS 3  Xrotation Yrotation Zrotation
								JOINT left_lowarm_twist
								{
									OFFSET	-110.7	-3.89999	13.6
									CHANNELS 3  Xrotation Yrotation Zrotation
									JOINT left_hand
									{
										OFFSET	-110.7	-3.89999	13.6
										CHANNELS 3  Xrotation Yrotation Zrotation
										JOINT left_ee
										{
											OFFSET	-80.8	-5.10001	12.1
											CHANNELS 3  Xrotation Yrotation Zrotation
											End Site
											{
												OFFSET	1	0	0
											}
										}
									}
								}
							}
						}
					}
					JOINT right_clavicle
					{
						OFFSET	43.2	22.4	-70.8
						CHANNELS 3  Xrotation Yrotation Zrotation
						JOINT right_shoulder
						{
							OFFSET	93.9	-5.79999	48.7
							CHANNELS 3  Xrotation Yrotation Zrotation
							JOINT right_elbow
							{
								OFFSET	291.4	-30.8	15.2
								CHANNELS 3  Xrotation Yrotation Zrotation
								JOINT right_lowarm_twist
								{
									OFFSET	110.7	-3.89999	13.6
									CHANNELS 3  Xrotation Yrotation Zrotation
									JOINT right_hand
									{
										OFFSET	110.7	-3.89999	13.6
										CHANNELS 3  Xrotation Yrotation Zrotation
										JOINT right_ee
										{
											OFFSET	80.8	-5.10001	12.1
											CHANNELS 3  Xrotation Yrotation Zrotation
											End Site
											{
												OFFSET	1	0	0
											}
										}
									}
								}
							}
						}
					}
				}
			}
		}
	}
	JOINT left_hip
	{
		OFFSET	-82.8	-127.5	0.300001
		CHANNELS 3  Xrotation Yrotation Zrotation
		JOINT left_knee
		{
			OFFSET	-28.2	-396.7	2.2
			CHANNELS 3  Xrotation Yrotation Zrotation
			JOINT left_ankle
			{
				OFFSET	-11.7	-411.3	35.4
				CHANNELS 3  Xrotation Yrotation Zrotation
				JOINT left_toes
				{
					OFFSET	0	-60	-88.6
					CHANNELS 3  Xrotation Yrotation Zrotation
					JOINT left_foot_ee
					{
						OFFSET	-22.5	-16.5	-42.2
						CHANNELS 3  Xrotation Yrotation Zrotation
						End Site
						{
							OFFSET	1	0	0
						}
					}
				}
			}
		}
	}
	JOINT right_hip
	{
		OFFSET	82.8	-127.5	0.300001
		CHANNELS 3  Xrotation Yrotation Zrotation
		JOINT right_knee
		{
			OFFSET	28.2	-396.7	2.2
			CHANNELS 3  Xrotation Yrotation Zrotation
			JOINT right_ankle
			{
				OFFSET	11.7	-411.3	35.4
				CHANNELS 3  Xrotation Yrotation Zrotation
				JOINT right_toes
				{
					OFFSET	0	-60	-88.6
					CHANNELS 3  Xrotation Yrotation Zrotation
					JOINT right_foot_ee
					{
						OFFSET	22.5	-16.5	-42.2
						CHANNELS 3  Xrotation Yrotation Zrotation
						End Site
						{
							OFFSET	1	0	0
						}
					}
				}
			}
		}
	}
}
MOTION
Frames: 6
Frame Time: 0.02
1572.6 711.44 -1458.17 -11.1164 63.6252 10.1422 3.75906 0.15315 -0.780888 3.75938 0.202528 -0.769561 3.75648 0.312494 -0.731842 3.75579 0.192995 -0.772007 -2.95977 8.29608 -6.32848 -2.60556 19.9849 -5.45174 -0.0 0.0 -0.0 1.35422 23.7064 4.58534 -21.3848 -9.63434 68.2008 0.60622 -16.7153 0.0890621 -41.0422 -3.06268 4.1345 3.85233 20.9841 33.2724 -0.0 0.0 -0.0 8.80142 11.7311 -17.1831 16.0194 -13.017 -68.0914 0.705612 19.2666 -0.119769 -37.6038 2.70001 -3.88331 4.09175 -18.4275 -34.5128 0.0 0.0 0.0 34.4703 -5.34483 -1.3941 -58.188 -2.00753 8.32279 23.6814 24.6797 -3.3372 18.1535 -0.0 -0.0 -0.0 0.0 -0.0 11.4671 26.9511 -7.0642 -6.43391 -0.210932 -0.964369 30.4894 -26.8596 4.21238 11.1529 -0.0 -0.0 0.0 0.0 0.0 
1562.5 711.628 -1468.8 -10.9409 63.3996 10.7349 3.70264 0.200261 -0.653426 3.70285 0.241434 -0.639359 3.70004 0.3326 -0.597034 3.69962 0.234138 -0.642067 -2.38443 8.44777 -6.76798 -1.96421 20.597 -6.01293 -0.0 0.0 -0.0 1.29484 23.7461 4.50716 -20.1746 -8.83728 67.0585 0.46066 -12.8548 0.0518949 -41.8294 -3.14778 4.18893 3.75397 22.9318 32.9349 -0.0 0.0 -0.0 8.93268 12.813 -17.4307 16.772 -13.1425 -68.2102 0.79594 21.5185 -0.151249 -35.4019 2.47596 -3.71125 4.49048 -17.739 -37.4577 0.0 0.0 0.0 37.8741 -6.13445 -2.81835 -59.2286 -2.11727 8.43991 21.5065 26.5611 -3.09381 17.0222 -0.0 -0.0 -0.0 0.0 -0.0 11.4559 25.7266 -8.58298 -7.46313 -0.234567 -1.12054 30.4517 -25.9762 4.18418 12.1421 -0.0 -0.0 0.0 0.0 0.0 
1549.9 708.568 -1483.29 -10.6645 63.7307 10.8402 3.822 0.213478 -0.394025 3.82206 0.238118 -0.379642 3.82045 0.290506 -0.341226 3.82036 0.23297 -0.382823 -1.82602 7.86469 -5.48064 -1.49207 18.527 -4.81223 -0.0 0.0 -0.0 0.411292 23.4526 3.27609 -20.8023 -7.63505 66.7866 0.527722 -14.6505 0.0678394 -40.4987 -3.00435 4.09624 4.28813 22.6292 36.8191 -0.0 0.0 -0.0 9.41745 13.3468 -18.4719 18.385 -12.939 -68.3796 0.886933 23.7185 -0.186251 -31.4055 2.08691 -3.37761 5.25552 -16.727 -43.6698 0.0 0.0 0.0 41.0663 -9.21366 -4.63061 -57.6859 -1.95536 8.26559 18.0388 23.2331 -2.58379 14.8924 -0.0 -0.0 -0.0 0.0 -0.0 10.3525 24.1833 -9.49867 -6.95052 -0.223146 -1.04271 33.41 -26.3971 4.53026 12.2955 -0.0 -0.0 0.0 0.0 0.0 
1537.75 706.039 -1495.76 -10.3032 64.7472 11.9709 3.61887 0.00793545 -0.599675 3.61907 0.0460775 -0.597955 3.61849 0.134105 -0.584542 3.61801 0.0401062 -0.598385 -1.69896 7.91072 -5.0408 -1.3845 18.2595 -4.35813 -0.0 0.0 -0.0 -0.145085 23.5811 2.52938 -21.1884 -5.51989 66.7823 0.517007 -14.3654 0.0651552 -39.5992 -2.90864 4.03173 4.38402 21.1826 37.3091 -0.0 0.0 -0.0 9.67573 13.1315 -19.0477 17.7104 -12.0867 -67.5821 1.10869 28.7752 -0.284415 -26.4303 1.63673 -2.92596 5.88354 -14.6743 -49.1296 0.0 0.0 0.0 42.6328 -11.8744 -4.43813 -56.534 -1.83758 8.13264 15.5248 23.816 -2.25179 14.3611 -0.0 -0.0 -0.0 0.0 -0.0 9.68297 20.8773 -11.093 -7.18127 -0.228374 -1.07773 35.1535 -25.7233 4.69936 11.5772 -0.0 -0.0 0.0 0.0 0.0 
1523.29 705.077 -1507.52 -12.735 66.0931 15.2576 3.60481 -0.111812 -0.623988 3.60503 -0.0718803 -0.629838 3.60572 0.0223028 -0.633534 3.60517 -0.0780299 -0.629105 -1.58159 7.96142 -4.94946 -1.26561 18.2751 -4.27431 -0.0 0.0 -0.0 0.0301789 23.8503 2.79755 -21.2409 -4.86878 66.0983 0.514939 -14.3103 0.0646431 -39.9919 -2.9503 4.06007 4.50201 20.7733 38.1582 -0.0 0.0 -0.0 9.7218 13.1127 -19.1498 18.322 -12.4927 -67.6226 1.22084 31.1629 -0.34045 -24.3291 1.45875 -2.72388 6.08781 -13.5626 -50.9355 0.0 0.0 0.0 43.8553 -12.203 -5.35577 -54.4313 -1.62961 7.88405 13.5366 25.3421 -1.99355 13.4497 -0.0 -0.0 -0.0 0.0 -0.0 9.75973 21.1094 -12.7124 -7.76998 -0.24107 -1.16718 34.8958 -26.1364 4.68427 12.3237 -0.0 -0.0 0.0 0.0 0.0 
1514.89 704.757 -1518.36 -14.0881 66.7368 17.3764 3.48616 -0.342417 -0.929387 3.48659 -0.282587 -0.94929 3.4911 -0.136772 -0.980966 3.48987 -0.289974 -0.94706 -0.284054 6.72284 -3.48771 -0.0609271 14.8385 -3.02971 -0.0 0.0 -0.0 0.338042 22.9004 3.12093 -18.2316 -2.71347 67.0827 0.378177 -10.6109 0.0351188 -39.9784 -2.94886 4.0591 4.91978 21.7374 41.699 -0.0 0.0 -0.0 9.96036 12.8722 -19.6837 18.4735 -12.3509 -67.115 1.60437 38.4734 -0.559886 -18.0215 0.970801 -2.08039 6.6738 -12.8194 -57.4504 0.0 0.0 0.0 43.978 -16.8856 -5.86362 -47.1276 -0.981306 6.96566 1.34949 25.2088 -0.205665 9.52376 -0.0 -0.0 -0.0 0.0 -0.0 9.19735 16.8984 -13.3896 -7.44443 -0.234162 -1.1177 36.2993 -26.0685 4.83087 10.7936 -0.0 -0.0 0.0 0.0 0.0 
